<?xml version="1.0" encoding="UTF-8" standalone="no"?><!-- Generator: Gravit.io -->
<svg xmlns="http://www.w3.org/2000/svg" xmlns:xlink="http://www.w3.org/1999/xlink" viewBox="0 0 81.729 82.823">
    <path d=" M 40.514 0 L 39.312 0.723 L 25.588 9.036 L 24.519 9.726 L 24.519 24.392 L 13.37 31.128 L 12.259 31.821 L 12.259 46.484 L 1.111 53.22 L 0 53.912 L 0 73.082 L 0.996 73.773 L 14.722 82.084 L 15.872 82.798 L 17.047 82.096 L 28.477 75.367 L 39.768 82.09 L 40.96 82.801 L 42.151 82.087 L 53.331 75.394 L 63.901 82.059 L 65.115 82.823 L 66.344 82.085 L 80.381 73.774 L 81.729 73.082 L 81.729 71.729 L 81.729 55.264 L 81.729 53.912 L 80.618 53.22 L 69.47 46.484 L 69.47 33.171 L 69.47 31.821 L 68.359 31.128 L 57.211 24.392 L 57.211 11.079 L 57.211 9.726 L 55.79 9.036 L 41.851 0.723 L 40.514 0 L 40.514 0 Z  M 40.863 2.767 L 54.758 11.079 L 54.758 25.744 L 67.017 33.171 L 67.017 47.836 L 79.278 55.264 L 79.278 71.729 L 65.292 80.041 L 53.435 72.614 L 40.991 80.041 L 28.494 72.614 L 16.06 80.041 L 2.452 71.729 L 2.452 55.264 L 14.71 47.836 L 14.71 33.171 L 26.97 25.744 L 26.97 11.079 L 40.863 2.767 L 40.863 2.767 Z "
          fill-rule="evenodd"/>
    <path d=" M 51.489 25.855 L 40.863 32.399 L 30.24 25.855 L 30.24 12.769 L 40.863 6.226 L 51.489 12.769 L 51.489 25.855 Z "
          fill-rule="evenodd" fill="rgb(89,195,65)"/>
    <path d=" M 51.489 70.039 L 40.863 76.583 L 30.24 70.039 L 30.24 56.953 L 40.863 50.41 L 51.489 56.953 L 51.489 70.039 Z "
          fill-rule="evenodd"/>
    <path d=" M 76.008 70.039 L 65.383 76.583 L 54.758 70.039 L 54.758 56.953 L 65.383 50.41 L 76.008 56.953 L 76.008 70.039 Z "
          fill-rule="evenodd"/>
    <path d=" M 26.97 70.039 L 15.936 76.583 L 4.904 70.039 L 4.904 56.953 L 15.936 50.41 L 26.97 56.953 L 26.97 70.039 Z "
          fill-rule="evenodd"/>
    <path d=" M 39.23 47.948 L 28.605 54.49 L 17.98 47.948 L 17.98 34.861 L 28.605 28.318 L 39.23 34.861 L 39.23 47.948 L 39.23 47.948 Z "
          fill-rule="evenodd"/>
    <path d=" M 63.749 47.948 L 53.124 54.49 L 42.499 47.948 L 42.499 34.861 L 53.124 28.318 L 63.749 34.861 L 63.749 47.948 L 63.749 47.948 Z "
          fill-rule="evenodd"/>
</svg>