<?xml version="1.0" encoding="UTF-8"?>
<svg width="130px" height="83px" viewBox="0 0 130 83" version="1.1" xmlns="http://www.w3.org/2000/svg" xmlns:xlink="http://www.w3.org/1999/xlink">
    <!-- Generator: Sketch 41.2 (35397) - http://www.bohemiancoding.com/sketch -->
    <title>fondy_color_square</title>
    <desc>Created with Sketch.</desc>
    <defs></defs>
    <g id="Page-1" stroke="none" stroke-width="1" fill="none" fill-rule="evenodd">
        <g id="Marketing-Desktop-1440x900" transform="translate(-306.000000, -1068.000000)">
            <g id="fondy_color_square" transform="translate(306.000000, 1068.000000)">
                <g id="Group" transform="translate(24.000000, 0.000000)">
                    <path d="M40.5143708,0.114657051 L39.3124788,0.838113782 L25.5884931,9.15048397 L24.518917,9.84108654 L24.518917,24.5064151 L13.3703001,31.2425833 L12.2594585,31.9351811 L12.2594585,46.5986474 L1.11084163,53.3348157 L0,54.0263494 L0,73.1961571 L0.995830581,73.8876907 L14.7216799,82.1989968 L15.8717903,82.9128766 L17.0469263,82.2107019 L28.4773469,75.4813173 L39.7677309,82.2048494 L40.9600386,82.9158029 L42.1514146,82.2019231 L53.3306479,75.5084519 L63.9014141,82.1738574 L65.114754,82.938149 L66.3435352,82.2000609 L80.3808728,73.8886218 L81.729324,73.1970881 L81.729324,71.8440817 L81.729324,55.3784247 L81.729324,54.0263494 L80.6184824,53.3348157 L69.4699986,46.5986474 L69.4699986,33.2853942 L69.4699986,31.9351811 L68.3590239,31.2425833 L57.2105401,24.5064151 L57.2105401,11.1940929 L57.2105401,9.84108654 L55.7900738,9.15048397 L41.8513742,0.838113782 L40.5143708,0.114657051 L40.5143708,0.114657051 Z M40.8632643,2.88185577 L54.7577699,11.1940929 L54.7577699,25.8584904 L67.0172284,33.2853942 L67.0172284,47.9507228 L79.2777518,55.3784247 L79.2777518,71.8440817 L65.2920627,80.1553878 L53.4351428,72.728617 L40.9907881,80.1553878 L28.4935869,72.728617 L16.0597482,80.1553878 L2.45170534,71.8440817 L2.45170534,55.3784247 L14.710232,47.9507228 L14.710232,33.2853942 L26.9696905,25.8584904 L26.9696905,11.1940929 L40.8632643,2.88185577 L40.8632643,2.88185577 Z" id="Shape" fill="#ffffff"></path>
                    <polygon id="Shape" fill="#59C341" points="51.4892731 25.9692901 40.8629981 32.5135208 30.2395184 25.9692901 30.2395184 12.8838878 40.8629981 6.34085417 51.4892731 12.8838878"></polygon>
                    <polygon id="Shape" fill="#ffffff" points="51.4892731 70.1533558 40.8629981 76.6974535 30.2395184 70.1533558 30.2395184 57.0679535 40.8629981 50.5247869 51.4892731 57.0679535"></polygon>
                    <polygon id="Shape" fill="#ffffff" points="76.0081901 70.1533558 65.3828469 76.6974535 54.7584354 70.1533558 54.7584354 57.0679535 65.3828469 50.5247869 76.0081901 57.0679535"></polygon>
                    <polygon id="Shape" fill="#ffffff" points="26.9698237 70.1533558 15.9362178 76.6974535 4.90367691 70.1533558 4.90367691 57.0679535 15.9362178 50.5247869 26.9698237 57.0679535"></polygon>
                    <polygon id="Shape" fill="#ffffff" points="39.2298146 48.0628526 28.6054032 54.6050881 17.980193 48.0628526 17.980193 34.9755881 28.6054032 28.4324215 39.2298146 34.9755881 39.2298146 48.0628526"></polygon>
                    <polygon id="Shape" fill="#ffffff" points="63.7487316 48.0628526 53.1243202 54.6050881 42.4989769 48.0628526 42.4989769 34.9755881 53.1243202 28.4324215 63.7487316 34.9755881 63.7487316 48.0628526"></polygon>
                </g>
            </g>
        </g>
    </g>
</svg>